PathFileType	4	(X/Y/Z)	 3.0Hz3min.trc
DataRate	CameraRate	NumFrames	NumMarkers	Units	OrigDataRate	OrigDataStartFrame	OrigNumFrames
200	200	8	39	m	200	376	1000
Frame#	Time	C7			LSH			RSH			MAN			RASI			LASI			HIPR			HIPL			RPSI			LPSI			COX			RTHI1			RTHI2			RTHI3			RTHI4			RLKN			RMKN			RSHA1			RSHA2			RSHA3			RSHA4			RHEEL			RMET5			RMET1			RTOE			LTHI1			LTHI2			LTHI3			LTHI4			LLKN			LMKN			LSHA1			LSHA2			LSHA3			LSHA4			LHEEL			LMET5			LMET1			LTOE			
		X1	Y1	Z1	X2	Y2	Z2	X3	Y3	Z3	X4	Y4	Z4	X5	Y5	Z5	X6	Y6	Z6	X7	Y7	Z7	X8	Y8	Z8	X9	Y9	Z9	X10	Y10	Z10	X11	Y11	Z11	X12	Y12	Z12	X13	Y13	Z13	X14	Y14	Z14	X15	Y15	Z15	X16	Y16	Z16	X17	Y17	Z17	X18	Y18	Z18	X19	Y19	Z19	X20	Y20	Z20	X21	Y21	Z21	X22	Y22	Z22	X23	Y23	Z23	X24	Y24	Z24	X25	Y25	Z25	X26	Y26	Z26	X27	Y27	Z27	X28	Y28	Z28	X29	Y29	Z29	X30	Y30	Z30	X31	Y31	Z31	X32	Y32	Z32	X33	Y33	Z33	X34	Y34	Z34	X35	Y35	Z35	X36	Y36	Z36	X37	Y37	Z37	X38	Y38	Z38	X39	Y39	Z39	
376	1.8800	-0.289528	1.648198	-0.474137	-0.273091	1.610037	-0.714886	-0.207420	1.615802	-0.274406	-0.152629	1.580814	-0.500051	-0.137362	1.128349	-0.379933	-0.160363	1.136692	-0.614992	-0.201132	1.186775	-0.327633	-0.235702	1.200751	-0.648892	-0.322912	1.157560	-0.420115	-0.333768	1.161034	-0.531917	-0.337403	1.155242	-0.476491	-0.202554	0.887827	-0.287032	-0.188814	0.830819	-0.278382	-0.125380	0.842157	-0.289671	-0.132939	0.902289	-0.301119	-0.170783	0.540934	-0.298677	-0.164652	0.529180	-0.404203	-0.252648	0.419368	-0.249214	-0.272980	0.381270	-0.250871	-0.204786	0.398770	-0.272232	-0.219570	0.361235	-0.272014	-0.399422	0.103477	-0.308344	-0.230005	0.028354	-0.243142	-0.190235	0.042351	-0.336850	-0.157163	0.029833	-0.335100	-0.236968	0.868349	-0.687364	-0.221038	0.810247	-0.697338	-0.157559	0.822780	-0.703272	-0.165263	0.881912	-0.695318	-0.190359	0.542387	-0.673752	-0.163050	0.533364	-0.576851	-0.322056	0.397852	-0.694815	-0.336801	0.360406	-0.689166	-0.276939	0.342494	-0.696827	-0.269750	0.385943	-0.701841	-0.430515	0.101235	-0.630011	-0.271239	0.031138	-0.711711	-0.216946	0.041345	-0.632979	-0.179682	0.028569	-0.644521	
377	1.8850	-0.289258	1.644514	-0.474227	-0.272559	1.605773	-0.715491	-0.207009	1.611688	-0.274249	-0.152244	1.576744	-0.500099	-0.137771	1.124451	-0.379813	-0.160729	1.132746	-0.615007	-0.201758	1.182408	-0.327448	-0.236169	1.196480	-0.649115	-0.323457	1.153061	-0.420228	-0.334118	1.156648	-0.531825	-0.337873	1.150591	-0.476538	-0.202499	0.884220	-0.287180	-0.188861	0.827262	-0.278157	-0.125236	0.838834	-0.289660	-0.132975	0.898893	-0.301115	-0.169853	0.537110	-0.298785	-0.163875	0.525487	-0.404155	-0.252719	0.416135	-0.249321	-0.273249	0.378103	-0.251056	-0.204935	0.395244	-0.272355	-0.219915	0.357788	-0.272163	-0.400966	0.100474	-0.308179	-0.230502	0.027916	-0.242663	-0.190891	0.042207	-0.337029	-0.157519	0.029687	-0.335209	-0.236693	0.864425	-0.687738	-0.220568	0.806392	-0.697760	-0.157120	0.819117	-0.703564	-0.165009	0.878219	-0.695544	-0.189547	0.538633	-0.673885	-0.162095	0.529736	-0.577999	-0.322163	0.395164	-0.694455	-0.337170	0.357845	-0.688839	-0.277474	0.339512	-0.696791	-0.269992	0.382902	-0.701794	-0.431771	0.098319	-0.629527	-0.271856	0.030741	-0.712359	-0.217395	0.041242	-0.632726	-0.179867	0.028514	-0.644461	
378	1.8900	-0.288999	1.640861	-0.474367	-0.272037	1.601506	-0.716086	-0.206665	1.607597	-0.274122	-0.151805	1.572633	-0.500167	-0.138156	1.120469	-0.379688	-0.161113	1.128668	-0.615026	-0.202418	1.177881	-0.327249	-0.236651	1.192046	-0.649352	-0.324020	1.148474	-0.420352	-0.334464	1.152198	-0.531717	-0.338322	1.145854	-0.476588	-0.202527	0.880650	-0.287330	-0.188999	0.823718	-0.277904	-0.125201	0.835548	-0.289511	-0.133101	0.895543	-0.300985	-0.168729	0.533246	-0.298927	-0.163055	0.521747	-0.403948	-0.252826	0.413015	-0.249387	-0.273550	0.375057	-0.251188	-0.205117	0.391841	-0.272413	-0.220285	0.354462	-0.272244	-0.402331	0.097355	-0.308159	-0.230865	0.027506	-0.242227	-0.191387	0.042105	-0.337172	-0.157734	0.029583	-0.335266	-0.236546	0.860467	-0.688131	-0.220235	0.802499	-0.698205	-0.156818	0.815414	-0.703930	-0.164886	0.874485	-0.695858	-0.188829	0.534959	-0.674085	-0.161055	0.525931	-0.578812	-0.322321	0.392462	-0.694077	-0.337535	0.355255	-0.688514	-0.277991	0.336586	-0.696818	-0.270285	0.379920	-0.701780	-0.432908	0.095285	-0.629048	-0.272388	0.030378	-0.712962	-0.217671	0.041182	-0.632525	-0.179901	0.028502	-0.644456	
379	1.8950	-0.288762	1.637309	-0.474550	-0.271542	1.597287	-0.716649	-0.206394	1.603580	-0.274030	-0.151305	1.568484	-0.500255	-0.138514	1.116435	-0.379559	-0.161511	1.124499	-0.615041	-0.203107	1.173240	-0.327048	-0.237158	1.187481	-0.649591	-0.324593	1.143851	-0.420482	-0.334809	1.147730	-0.531590	-0.338737	1.141057	-0.476644	-0.202686	0.877166	-0.287456	-0.189226	0.820235	-0.277657	-0.125291	0.832310	-0.289249	-0.133322	0.892256	-0.300733	-0.168375	0.529916	-0.299087	-0.162286	0.518101	-0.403580	-0.252935	0.409993	-0.249422	-0.273833	0.372110	-0.251269	-0.205294	0.388577	-0.272417	-0.220633	0.351262	-0.272276	-0.403530	0.094107	-0.308216	-0.231113	0.027096	-0.241782	-0.191718	0.042044	-0.337239	-0.157803	0.029514	-0.335263	-0.236557	0.856524	-0.688532	-0.220080	0.798612	-0.698651	-0.156696	0.811719	-0.704374	-0.164930	0.870750	-0.696251	-0.188265	0.531568	-0.674356	-0.160053	0.522167	-0.579802	-0.322509	0.389717	-0.693757	-0.337860	0.352592	-0.688233	-0.278431	0.333686	-0.696870	-0.270578	0.376978	-0.701791	-0.433929	0.092180	-0.628547	-0.272827	0.030058	-0.713543	-0.217832	0.041143	-0.632367	-0.179825	0.028501	-0.644478	
380	1.9000	-0.288536	1.633868	-0.474748	-0.271117	1.593175	-0.717161	-0.206198	1.599687	-0.273977	-0.150757	1.564328	-0.500361	-0.138842	1.112377	-0.379430	-0.161961	1.120285	-0.615041	-0.203825	1.168529	-0.326859	-0.237697	1.182816	-0.649827	-0.325163	1.139233	-0.420620	-0.335153	1.143295	-0.531432	-0.339107	1.136257	-0.476700	-0.203001	0.873831	-0.287507	-0.189464	0.816836	-0.277513	-0.125515	0.829146	-0.288878	-0.133647	0.889062	-0.300383	-0.168038	0.526706	-0.299124	-0.161747	0.514508	-0.403205	-0.253009	0.407059	-0.249418	-0.274063	0.369247	-0.251308	-0.205438	0.385432	-0.272394	-0.220930	0.348175	-0.272281	-0.404703	0.090779	-0.308185	-0.231281	0.026700	-0.241352	-0.191937	0.042010	-0.337247	-0.157778	0.029469	-0.335225	-0.236755	0.852652	-0.688916	-0.220138	0.794786	-0.699075	-0.156794	0.808071	-0.704897	-0.165175	0.867065	-0.696729	-0.188092	0.528288	-0.674683	-0.159398	0.518531	-0.580703	-0.322718	0.386903	-0.693527	-0.338143	0.349820	-0.688022	-0.278792	0.330780	-0.696921	-0.270857	0.374055	-0.701806	-0.434862	0.089046	-0.628013	-0.273197	0.029777	-0.714079	-0.217936	0.041115	-0.632237	-0.179704	0.028500	-0.644505	
381	1.9050	-0.288321	1.630563	-0.474939	-0.270759	1.589224	-0.717595	-0.206081	1.595957	-0.273955	-0.150180	1.560208	-0.500483	-0.139138	1.108329	-0.379301	-0.162391	1.116048	-0.615043	-0.204564	1.163817	-0.326689	-0.238273	1.178092	-0.650048	-0.325711	1.134683	-0.420775	-0.335499	1.138958	-0.531221	-0.339413	1.131534	-0.476755	-0.203536	0.870669	-0.287408	-0.189779	0.813580	-0.277416	-0.125878	0.826073	-0.288415	-0.134074	0.885983	-0.299948	-0.168022	0.523846	-0.299036	-0.161200	0.511207	-0.402775	-0.253046	0.404193	-0.249390	-0.274236	0.366453	-0.251314	-0.205548	0.382403	-0.272372	-0.221173	0.345192	-0.272279	-0.405763	0.087470	-0.308165	-0.231402	0.026329	-0.240977	-0.192110	0.041988	-0.337228	-0.157726	0.029437	-0.335167	-0.237160	0.848913	-0.689239	-0.220439	0.791081	-0.699445	-0.157146	0.804527	-0.705496	-0.165643	0.863491	-0.697293	-0.188225	0.525120	-0.675017	-0.158701	0.514852	-0.581599	-0.322951	0.384040	-0.693392	-0.338403	0.346977	-0.687879	-0.279101	0.327866	-0.696942	-0.271127	0.371125	-0.701807	-0.435736	0.085930	-0.627448	-0.273527	0.029530	-0.714552	-0.218033	0.041092	-0.632120	-0.179594	0.028491	-0.644540	
382	1.9100	-0.288127	1.627414	-0.475112	-0.270499	1.585485	-0.717944	-0.206030	1.592432	-0.273959	-0.149590	1.556177	-0.500611	-0.139406	1.104328	-0.379170	-0.162796	1.111859	-0.615049	-0.205319	1.159163	-0.326537	-0.238890	1.173362	-0.650254	-0.326215	1.130293	-0.420951	-0.335846	1.134814	-0.530940	-0.339642	1.126996	-0.476800	-0.204271	0.867676	-0.287160	-0.190190	0.810498	-0.277347	-0.126375	0.823119	-0.287871	-0.134598	0.883028	-0.299441	-0.168004	0.520831	-0.298932	-0.160824	0.508015	-0.402458	-0.253056	0.401397	-0.249340	-0.274366	0.363731	-0.251281	-0.205646	0.379481	-0.272360	-0.221381	0.342305	-0.272291	-0.406777	0.084366	-0.308193	-0.231514	0.026011	-0.240658	-0.192288	0.041973	-0.337201	-0.157692	0.029411	-0.335093	-0.237780	0.845379	-0.689468	-0.220997	0.787567	-0.699725	-0.157770	0.801147	-0.706167	-0.166347	0.860090	-0.697929	-0.188500	0.522294	-0.675343	-0.158182	0.511461	-0.582412	-0.323224	0.381162	-0.693325	-0.338692	0.344097	-0.687790	-0.279411	0.324953	-0.696918	-0.271414	0.368215	-0.701776	-0.436576	0.082869	-0.626842	-0.273847	0.029321	-0.714952	-0.218163	0.041071	-0.632012	-0.179538	0.028462	-0.644585	
383	1.9150	-0.287974	1.624465	-0.475261	-0.270326	1.582004	-0.718196	-0.206035	1.589144	-0.273979	-0.149009	1.552305	-0.500732	-0.139650	1.100420	-0.379037	-0.163162	1.107771	-0.615072	-0.206079	1.154644	-0.326405	-0.239551	1.168694	-0.650439	-0.326652	1.126155	-0.421146	-0.336184	1.130957	-0.530594	-0.339796	1.122758	-0.476823	-0.205201	0.864868	-0.286808	-0.190709	0.807604	-0.277295	-0.126996	0.820320	-0.287265	-0.135208	0.880226	-0.298868	-0.168259	0.518053	-0.298619	-0.160504	0.505047	-0.402101	-0.253087	0.398690	-0.249285	-0.274491	0.361088	-0.251238	-0.205762	0.376688	-0.272373	-0.221583	0.339544	-0.272327	-0.407745	0.081409	-0.308259	-0.231641	0.025749	-0.240405	-0.192481	0.041964	-0.337163	-0.157695	0.029387	-0.335000	-0.238605	0.842120	-0.689579	-0.221817	0.784307	-0.699892	-0.158671	0.797983	-0.706886	-0.167275	0.856919	-0.698615	-0.189007	0.519515	-0.675649	-0.157757	0.508360	-0.583234	-0.323568	0.378343	-0.693313	-0.339043	0.341263	-0.687718	-0.279768	0.322086	-0.696837	-0.271746	0.365357	-0.701711	-0.437388	0.079893	-0.626193	-0.274166	0.029147	-0.715287	-0.218337	0.041055	-0.631914	-0.179548	0.028412	-0.644643	
